<svg version="1" xmlns="http://www.w3.org/2000/svg" width="346.667" height="346.667" viewBox="0 0 260.000000 260.000000"><path d="M45 13.9c-5.2 1.7-9 4.2-11.7 7.8-2.3 3-2.8 4.8-3.1 10.7-.3 6.1-.1 7.6 2 10.5 3.4 5 6.5 6.9 14.3 8.7C61.7 55 64 56.1 64 60c0 8-16.3 10.1-27.4 3.6l-4.2-2.4-2.9 5.4c-2.9 5.3-2.9 5.4-1 6.9 4 3 13.1 5.8 20.6 6.3 14.8.9 24.4-4.3 26.9-14.7 1.6-6.8.5-12.4-3.2-16.7-3.6-4.1-6.8-5.6-16.8-7.8-11-2.5-13-3.9-13-8.8 0-6.3 12.7-8.3 22.1-3.4l4.9 2.5 2.5-4.9c1.4-2.7 2.5-5.3 2.5-5.8s-2.8-2.2-6.2-3.7c-6.7-3-18.6-4.3-23.8-2.6zM171 14.1c-4.1.5-10.5 1.8-14.1 2.9-7.7 2.3-11.3 5.7-17.1 16.1-5.3 9.4-7.7 11.5-14 12.2C108.4 47.1 96 59.4 93 77.6c-.9 5.7-.5 12.4.9 12.4.3 0 1.7-2.5 2.9-5.4 4-9.2 3.6-9 22.4-7.7 9 .6 19.2 1.8 22.8 2.6 9.2 2.1 38 11.7 38 12.7 0 .4-2.3 4.2-5.1 8.5-8.5 13.1-11.7 19.4-14.5 29.1-2.2 7.9-2.6 10.8-2.2 18 .3 5.6 1.1 10 2.2 12.2 1 1.9 6.7 8.2 12.7 14 10.7 10.3 11.1 10.7 13.9 18.9 6 17.1 11.4 23.1 34.9 38.6 13.8 9.1 33.5 19.5 37.1 19.5.7 0 1-20.9 1-60.4v-60.3l-3.7-.7c-10.3-1.6-31.7.7-40.1 4.4-2.5 1.1-6.7 3.6-9.3 5.5-4.4 3.1-4.9 3.3-4.9 1.5 0-3 4.6-14.4 8.3-20.8 1.9-3.1 6.4-10.5 10-16.5 7.4-12.1 8.1-13.8 10.2-26.1 2.2-12.9 2-28.8-.5-36.9-2.4-7.8-8.5-15.1-16.3-19.6-10.5-6-27.7-8.8-42.7-7zM30 121.6c0 27 .5 29.8 6.5 36 4.5 4.7 9.1 6.4 17.6 6.4 10 0 17.2-3.8 21.2-11.3 2.1-4 2.2-5.5 2.5-29.5l.3-25.2h-13l-.3 24.1-.3 24.1-2.8 2.4c-4.3 3.7-11.8 3.4-15.8-.5l-2.9-2.9V98H30v23.6zM31 214.5V247h13v-25h9.3c10 0 15.3-1.7 19.4-6.1 8.9-9.7 6.1-26.4-5.2-31.9-3.6-1.7-6.2-2-20.3-2H31v32.5zM62 196c2 2 2.7 8.3 1.2 10.7-1.3 2.1-6.1 3.3-12.8 3.3H44v-16h8c6.7 0 8.3.3 10 2z"/></svg>